<svg xmlns="http://www.w3.org/2000/svg" enable-background="new 0 0 24 24" viewBox="0 0 24 24" id="playstation"><path d="M.455 16.209c-.862.637-.546 1.748 1.346 2.281 2.188.72 4.262.804 6.413.416v-2.032L6.28 17.579c-.712.258-1.763.312-2.341.121-.579-.191-.471-.553.242-.807l4.033-1.44v-2.268l-5.604 1.99C2.609 15.173 1.251 15.618.455 16.209zM14.358 4.223c-1.299-.437-3.721-1.165-5.383-1.473v17.26l3.908 1.24V6.77c0-.678.305-1.132.792-.974.637.179.763.804.763 1.482v5.785c2.437 1.174 4.354-.004 4.354-3.105C18.792 6.774 17.671 5.359 14.358 4.223z"></path><path d="M22.205,14.878c-1.637-0.621-3.721-0.833-5.425-0.645c-1.191,0.133-2.188,0.375-3.154,0.7v2.348l4.188-1.478c0.712-0.258,1.762-0.312,2.341-0.121c0.583,0.191,0.471,0.553-0.242,0.807l-6.287,2.239v2.26l8.546-3.063c0,0,1.146-0.42,1.617-1.011h-0.001C24.254,16.323,24.046,15.461,22.205,14.878z"></path></svg>